<?xml version="1.0" encoding="UTF-8" standalone="no"?>
<!DOCTYPE svg PUBLIC "-//W3C//DTD SVG 1.1//EN"
 "http://www.w3.org/Graphics/SVG/1.1/DTD/svg11.dtd">
<!-- Generated by graphviz version 3.0.0 (20220226.1711)
 -->
<!-- Pages: 1 -->
<svg width="163pt" height="188pt"
 viewBox="0.00 0.00 162.54 188.00" xmlns="http://www.w3.org/2000/svg" xmlns:xlink="http://www.w3.org/1999/xlink">
<g id="graph0" class="graph" transform="scale(1 1) rotate(0) translate(4 184)">
<polygon fill="white" stroke="transparent" points="-4,4 -4,-184 158.54,-184 158.54,4 -4,4"/>
<!-- rough -->
<g id="node1" class="node">
<title>rough</title>
<ellipse fill="none" stroke="black" cx="108.6" cy="-162" rx="31.4" ry="18"/>
<text text-anchor="middle" x="108.6" y="-158.3" font-family="Times,serif" font-size="14.00">rough</text>
</g>
<!-- logic -->
<g id="node2" class="node">
<title>logic</title>
<ellipse fill="none" stroke="black" cx="28.6" cy="-90" rx="28.7" ry="18"/>
<text text-anchor="middle" x="28.6" y="-86.3" font-family="Times,serif" font-size="14.00">logic</text>
</g>
<!-- rough&#45;&gt;logic -->
<g id="edge1" class="edge">
<title>rough&#45;&gt;logic</title>
<path fill="none" stroke="black" d="M92.02,-146.5C80.5,-136.41 64.97,-122.83 52.17,-111.62"/>
<polygon fill="black" stroke="black" points="54.44,-108.96 44.61,-105.01 49.83,-114.23 54.44,-108.96"/>
</g>
<!-- render -->
<g id="node3" class="node">
<title>render</title>
<ellipse fill="none" stroke="black" cx="108.6" cy="-90" rx="33.29" ry="18"/>
<text text-anchor="middle" x="108.6" y="-86.3" font-family="Times,serif" font-size="14.00">render</text>
</g>
<!-- rough&#45;&gt;render -->
<g id="edge2" class="edge">
<title>rough&#45;&gt;render</title>
<path fill="none" stroke="black" d="M108.6,-143.7C108.6,-135.98 108.6,-126.71 108.6,-118.11"/>
<polygon fill="black" stroke="black" points="112.1,-118.1 108.6,-108.1 105.1,-118.1 112.1,-118.1"/>
</g>
<!-- state -->
<g id="node4" class="node">
<title>state</title>
<ellipse fill="none" stroke="black" cx="108.6" cy="-18" rx="27" ry="18"/>
<text text-anchor="middle" x="108.6" y="-14.3" font-family="Times,serif" font-size="14.00">state</text>
</g>
<!-- rough&#45;&gt;state -->
<g id="edge3" class="edge">
<title>rough&#45;&gt;state</title>
<path fill="none" stroke="black" d="M124.6,-146.48C134.16,-136.68 145.42,-122.86 150.6,-108 155.86,-92.89 155.86,-87.11 150.6,-72 146.58,-60.46 138.88,-49.53 131.16,-40.64"/>
<polygon fill="black" stroke="black" points="133.53,-38.05 124.17,-33.08 128.39,-42.8 133.53,-38.05"/>
</g>
<!-- logic&#45;&gt;state -->
<g id="edge4" class="edge">
<title>logic&#45;&gt;state</title>
<path fill="none" stroke="black" d="M44.79,-74.83C56.36,-64.71 72.1,-50.93 85.06,-39.59"/>
<polygon fill="black" stroke="black" points="87.48,-42.12 92.71,-32.91 82.87,-36.86 87.48,-42.12"/>
</g>
<!-- render&#45;&gt;state -->
<g id="edge5" class="edge">
<title>render&#45;&gt;state</title>
<path fill="none" stroke="black" d="M108.6,-71.7C108.6,-63.98 108.6,-54.71 108.6,-46.11"/>
<polygon fill="black" stroke="black" points="112.1,-46.1 108.6,-36.1 105.1,-46.1 112.1,-46.1"/>
</g>
</g>
</svg>
